<svg id="Layer_1" data-name="Layer 1" xmlns="http://www.w3.org/2000/svg" viewBox="0 0 203.87 231.29"><defs><style>.cls-1{fill:#353535;}</style></defs><path class="cls-1" d="M633.56,243.54c-2.41,1.08-4.5,2.41-6.66,2.55-5.31.33-10.66.17-16,.09-5.7-.08-7.55-2.44-6.48-8.18q14.48-77.9,29-155.78c.38-2,.62-4,1-6.72H618.88L661.65,15l20.24,60.38h-15.6c-2.48,13.19-4.88,25.94-7.25,38.69q-11.49,61.74-23,123.47C635.65,239.51,634.58,241.34,633.56,243.54Z" transform="translate(-478.02 -15)"/><path class="cls-1" d="M591.14,90.08C592.7,84.88,596,82.84,601,83c4.82.15,9.65,0,14.48,0,6.26,0,8.1,2.16,6.91,8.32q-8.72,45.31-17.54,90.61-5.33,27.42-10.64,54.86c-1.47,7.6-3.63,9.4-11.44,9.42-4.33,0-8.66,0-13,0-7,0-8.62-2-7.3-8.83q4.85-25.24,9.8-50.46C578.53,154.8,584.81,122.64,591.14,90.08Z" transform="translate(-478.02 -15)"/><path class="cls-1" d="M565.93,167.13c-4.62,23.78-9.16,47.14-13.76,70.48-1.36,6.87-3.56,8.59-10.54,8.62-5.17,0-10.33.11-15.49,0-4.7-.12-6.64-2.5-5.75-7.13q9.74-50.48,19.57-100.94c1-5,4-7.56,9-7.68,5.49-.14,11-.16,16.48,0,5.31.15,7.12,2.52,6.11,7.84C569.75,147.77,567.85,157.24,565.93,167.13Z" transform="translate(-478.02 -15)"/><path class="cls-1" d="M496.66,173.17c6.56-.19,11.1-.24,17.25-.24,6.57,0,8.28,2,7.08,8.59-1.62,9-3.43,17.91-5.16,26.85-1.92,9.93-3.87,19.85-5.76,29.78-1,5.51-3.61,7.84-9.12,7.9s-11,.07-16.47,0-7.21-2.22-6.19-7.56c3-15.8,6.18-31.56,9.28-47.33.64-3.26,1.62-9,2.18-11.93C490.4,175.78,490.56,172.93,496.66,173.17Z" transform="translate(-478.02 -15)"/></svg>